<?xml version="1.0" encoding="UTF-8"?>
<!DOCTYPE svg PUBLIC "-//W3C//DTD SVG 1.1//EN" "http://www.w3.org/Graphics/SVG/1.1/DTD/svg11.dtd">
<!-- Creator: CorelDRAW 2020 (64-Bit) -->
<svg xmlns="http://www.w3.org/2000/svg" xml:space="preserve" width="100%" height="100%" version="1.1" style="shape-rendering:geometricPrecision; text-rendering:geometricPrecision; image-rendering:optimizeQuality; fill-rule:evenodd; clip-rule:evenodd" viewBox="0 0 38034 38034" xmlns:xlink="http://www.w3.org/1999/xlink" xmlns:xodm="http://www.corel.com/coreldraw/odm/2003">
    <defs>
        <style type="text/css">
            <![CDATA[
            .str0 {
                stroke: #2B2A29;
                stroke-width: 20;
                stroke-miterlimit: 22.9256
            }

            .fil0 {
                fill: none
            }

            .fil1 {
                fill: #0095A9
            }
            ]]>
        </style>
    </defs>
    <g id="Layer_x0020_1">

        <path class="fil1" d="M19017 11286c4270,0 7731,3461 7731,7731 0,4270 -3461,7731 -7731,7731 -4270,0 -7731,-3461 -7731,-7731 0,-4270 3461,-7731 7731,-7731zm2514 5217c-643,-643 -1532,-1041 -2514,-1041 -982,0 -1871,398 -2514,1041 -643,643 -1041,1532 -1041,2514 0,982 398,1871 1041,2514 643,643 1532,1041 2514,1041 982,0 1871,-398 2514,-1041 643,-643 1041,-1532 1041,-2514 0,-982 -398,-1871 -1041,-2514z" />
    </g>
    <g>
        <circle id="circle" class="fil1" cx="28665" cy="9365" r="3621" />
        <animateTransform attributeName="transform" type="rotate" from="0 19017  19017" to="360 19017 19017" begin="0s" dur="1s">
        </animateTransform>

    </g>
</svg>